<svg width="428.7250244140625px" height="96.00000305175782px" xmlns="http://www.w3.org/2000/svg" viewBox="35.637487792968756 26.999998474121092 428.7250244140625 96.00000305175782" style="background: rgb(254, 254, 254);" preserveAspectRatio="xMidYMid"><defs><filter id="editing-hole" x="-100%" y="-100%" width="300%" height="300%"><feFlood flood-color="#3c302e" result="black"></feFlood><feMorphology operator="dilate" radius="2" in="SourceGraphic" result="erode"></feMorphology><feGaussianBlur in="erode" stdDeviation="4" result="blur"></feGaussianBlur><feOffset in="blur" dx="2" dy="2" result="offset"></feOffset><feComposite operator="atop" in="offset" in2="black" result="merge"></feComposite><feComposite operator="in" in="merge" in2="SourceGraphic" result="inner-shadow"></feComposite></filter></defs><g filter="url(#editing-hole)"><g transform="translate(100.07500398159027, 92.99999809265137)"><path d="M25.87-9.94L25.87-9.94L25.87-9.94Q27.12-9.02 27.12-7.08L27.12-7.08L27.12-7.08Q27.12-5.14 26.28-3.77L26.28-3.77L26.28-3.77Q25.44-2.40 23.81-1.34L23.81-1.34L23.81-1.34Q20.30 0.91 14.18 0.91L14.18 0.91L14.18 0.91Q8.06 0.91 4.73-2.28L4.73-2.28L4.73-2.28Q1.39-5.47 1.39-11.14L1.39-11.14L1.39-11.14Q1.39-19.15 5.57-25.25L5.57-25.25L5.57-25.25Q8.74-29.76 14.40-31.68L14.40-31.68L14.40-31.68Q17.33-32.64 20.21-32.64L20.21-32.64L20.21-32.64Q23.09-32.64 24.86-32.26L24.86-32.26L24.86-32.26Q26.64-31.87 27.98-31.10L27.98-31.10L27.98-31.10Q30.91-29.42 30.91-26.74L30.91-26.74L30.91-26.74Q30.91-24.29 28.61-22.46L28.61-22.46L28.61-22.46Q26.50-20.83 24.77-20.83L24.77-20.83L24.77-20.83Q23.04-20.83 22.32-21.07L22.32-21.07L22.32-21.07Q22.51-22.80 22.51-23.93L22.51-23.93L22.51-23.93Q22.51-25.06 22.46-25.87L22.46-25.87L22.46-25.87Q22.42-26.69 22.18-27.46L22.18-27.46L22.18-27.46Q21.70-29.23 20.23-29.23L20.23-29.23L20.23-29.23Q18.77-29.23 17.30-27.86L17.30-27.86L17.30-27.86Q15.84-26.50 14.59-24.19L14.59-24.19L14.59-24.19Q11.76-18.96 11.76-12.77L11.76-12.77L11.76-12.77Q11.76-9.79 13.44-8.09L13.44-8.09L13.44-8.09Q15.12-6.38 18.72-6.38L18.72-6.38L18.72-6.38Q21.41-6.38 23.95-8.16L23.95-8.16L23.95-8.16Q25.06-8.93 25.87-9.94ZM46.13-13.49L46.13-13.49L46.13-13.49Q47.86-16.56 47.86-19.68L47.86-19.68L47.86-19.68Q47.86-21.74 46.37-21.74L46.37-21.74L46.37-21.74Q45.22-21.74 44.02-19.78L44.02-19.78L44.02-19.78Q42.77-17.81 42.38-15.26L42.38-15.26L39.89 0L29.95 0.96L34.85-24.48L42.77-25.44L41.90-20.59L41.90-20.59Q44.26-25.44 49.54-25.44L49.54-25.44L49.54-25.44Q52.32-25.44 53.83-24L53.83-24L53.83-24Q55.34-22.56 55.34-19.61L55.34-19.61L55.34-19.61Q55.34-16.66 53.40-14.78L53.40-14.78L53.40-14.78Q51.46-12.91 48.14-12.91L48.14-12.91L48.14-12.91Q46.70-12.91 46.13-13.49ZM75.55-8.11L75.55-8.11L75.55-8.11Q76.75-7.30 76.75-5.50L76.75-5.50L76.75-5.50Q76.75-3.70 75.84-2.54L75.84-2.54L75.84-2.54Q74.93-1.39 73.44-0.62L73.44-0.62L73.44-0.62Q70.37 0.96 67.06 0.96L67.06 0.96L67.06 0.96Q63.74 0.96 61.80 0.24L61.80 0.24L61.80 0.24Q59.86-0.48 58.56-1.82L58.56-1.82L58.56-1.82Q56.02-4.37 56.02-9.02L56.02-9.02L56.02-9.02Q56.02-16.27 59.95-20.69L59.95-20.69L59.95-20.69Q64.18-25.44 71.52-25.44L71.52-25.44L71.52-25.44Q76.08-25.44 78.34-23.52L78.34-23.52L78.34-23.52Q80.02-22.08 80.02-19.73L80.02-19.73L80.02-19.73Q80.02-11.28 65.42-11.28L65.42-11.28L65.42-11.28Q65.23-10.03 65.23-8.98L65.23-8.98L65.23-8.98Q65.23-6.77 66.22-5.93L66.22-5.93L66.22-5.93Q67.20-5.09 69.02-5.09L69.02-5.09L69.02-5.09Q70.85-5.09 72.79-5.93L72.79-5.93L72.79-5.93Q74.74-6.77 75.55-8.11ZM65.76-13.34L65.76-13.34L65.76-13.34Q69.17-13.34 71.14-15.46L71.14-15.46L71.14-15.46Q73.10-17.47 73.10-20.69L73.10-20.69L73.10-20.69Q73.10-21.79 72.70-22.39L72.70-22.39L72.70-22.39Q72.29-22.99 71.47-22.99L71.47-22.99L71.47-22.99Q70.66-22.99 69.96-22.68L69.96-22.68L69.96-22.68Q69.26-22.37 68.54-21.31L68.54-21.31L68.54-21.31Q66.77-18.91 65.76-13.34ZM83.74-1.44L83.74-1.44L83.74-1.44Q82.61-2.69 82.10-4.66L82.10-4.66L82.10-4.66Q81.60-6.62 81.60-9.84L81.60-9.84L81.60-9.84Q81.60-13.06 82.70-15.98L82.70-15.98L82.70-15.98Q83.81-18.91 85.82-21.02L85.82-21.02L85.82-21.02Q89.95-25.44 96.77-25.44L96.77-25.44L96.77-25.44Q99.22-25.44 100.99-24.62L100.99-24.62L109.20-25.44L105.65-6.72L105.65-6.72Q105.50-6.14 105.50-5.09L105.50-5.09L105.50-5.09Q105.50-4.03 106.15-3.36L106.15-3.36L106.15-3.36Q106.80-2.69 107.76-2.59L107.76-2.59L107.76-2.59Q107.28-0.96 105.53 0L105.53 0L105.53 0Q103.78 0.96 101.81 0.96L101.81 0.96L101.81 0.96Q99.84 0.96 98.52 0.22L98.52 0.22L98.52 0.22Q97.20-0.53 96.82-1.78L96.82-1.78L96.82-1.78Q96.05-0.58 94.42 0.19L94.42 0.19L94.42 0.19Q92.78 0.96 90.60 0.96L90.60 0.96L90.60 0.96Q88.42 0.96 86.64 0.38L86.64 0.38L86.64 0.38Q84.86-0.19 83.74-1.44ZM93.86-20.93L93.86-20.93L93.86-20.93Q93.31-20.06 92.83-18.60L92.83-18.60L92.83-18.60Q92.35-17.14 91.56-13.22L91.56-13.22L91.56-13.22Q90.77-9.31 90.77-6.53L90.77-6.53L90.77-6.53Q90.77-3.74 91.20-2.93L91.20-2.93L91.20-2.93Q91.63-2.11 92.40-2.11L92.40-2.11L92.40-2.11Q93.94-2.11 95.06-3.58L95.06-3.58L95.06-3.58Q96.19-5.04 96.62-7.63L96.62-7.63L99.17-21.70L99.17-21.70Q98.16-22.56 96.98-22.56L96.98-22.56L96.98-22.56Q95.81-22.56 95.11-22.18L95.11-22.18L95.11-22.18Q94.42-21.79 93.86-20.93ZM112.56-4.80L112.56-4.80L112.56-4.80Q112.56-6.10 113.23-9.36L113.23-9.36L115.78-22.32L112.94-22.32L113.14-23.76L113.14-23.76Q118.90-25.49 124.46-29.71L124.46-29.71L126.77-29.71L125.62-24.48L129.36-24.48L128.93-22.32L125.23-22.32L122.78-9.36L122.78-9.36Q122.16-6.38 122.16-5.38L122.16-5.38L122.16-5.38Q122.16-3.07 124.18-2.59L124.18-2.59L124.18-2.59Q123.70-0.96 121.97 0L121.97 0L121.97 0Q120.24 0.96 117.79 0.96L117.79 0.96L117.79 0.96Q115.34 0.96 113.95-0.58L113.95-0.58L113.95-0.58Q112.56-2.11 112.56-4.80ZM140.64-2.64L140.64-2.64L140.64-2.64Q139.15 0.96 134.40 0.96L134.40 0.96L134.40 0.96Q131.95 0.96 130.42-0.72L130.42-0.72L130.42-0.72Q129.12-2.21 129.12-3.70L129.12-3.70L129.12-3.70Q129.12-7.58 130.90-15.17L130.90-15.17L132.67-24.48L142.42-25.44L139.49-10.27L139.49-10.27Q138.67-6.72 138.67-5.47L138.67-5.47L138.67-5.47Q138.67-2.74 140.64-2.64ZM133.54-31.15L133.54-31.15L133.54-31.15Q133.54-33.02 135.10-34.03L135.10-34.03L135.10-34.03Q136.66-35.04 138.91-35.04L138.91-35.04L138.91-35.04Q141.17-35.04 142.54-34.03L142.54-34.03L142.54-34.03Q143.90-33.02 143.90-31.15L143.90-31.15L143.90-31.15Q143.90-29.28 142.39-28.32L142.39-28.32L142.39-28.32Q140.88-27.36 138.62-27.36L138.62-27.36L138.62-27.36Q136.37-27.36 134.95-28.32L134.95-28.32L134.95-28.32Q133.54-29.28 133.54-31.15ZM162.14-23.66L162.14-23.66L162.14-23.66Q163.73-25.44 166.46-25.44L166.46-25.44L166.46-25.44Q168.14-25.44 169.44-24.53L169.44-24.53L169.44-24.53Q170.74-23.62 170.74-21.91L170.74-21.91L170.74-21.91Q170.74-20.21 170.21-18.38L170.21-18.38L170.21-18.38Q169.68-16.56 168.86-14.69L168.86-14.69L168.86-14.69Q167.23-11.04 164.98-8.02L164.98-8.02L164.98-8.02Q161.81-3.65 158.76-1.34L158.76-1.34L158.76-1.34Q155.71 0.96 152.40 0.96L152.40 0.96L152.40 0.96Q149.71 0.96 148.08 0.34L148.08 0.34L148.08 0.34Q147.79-9.74 147.43-13.34L147.43-13.34L147.43-13.34Q147.07-16.94 146.78-18.91L146.78-18.91L146.78-18.91Q146.30-22.75 144.86-23.66L144.86-23.66L144.86-23.66Q145.97-24.62 147.05-25.03L147.05-25.03L147.05-25.03Q148.13-25.44 150.36-25.44L150.36-25.44L150.36-25.44Q152.59-25.44 154.18-23.69L154.18-23.69L154.18-23.69Q155.76-21.94 156.07-18.84L156.07-18.84L156.07-18.84Q156.38-15.74 156.38-12L156.38-12L156.38-12Q156.38-8.26 156.10-3.74L156.10-3.74L156.10-3.74Q157.58-4.80 159.17-8.02L159.17-8.02L159.17-8.02Q161.33-12.48 162.10-17.86L162.10-17.86L162.10-17.86Q162.34-19.49 162.34-21.22L162.34-21.22L162.34-21.22Q162.34-22.94 162.14-23.66ZM191.47-8.11L191.47-8.11L191.47-8.11Q192.67-7.30 192.67-5.50L192.67-5.50L192.67-5.50Q192.67-3.70 191.76-2.54L191.76-2.54L191.76-2.54Q190.85-1.39 189.36-0.62L189.36-0.62L189.36-0.62Q186.29 0.96 182.98 0.96L182.98 0.96L182.98 0.96Q179.66 0.96 177.72 0.24L177.72 0.24L177.72 0.24Q175.78-0.48 174.48-1.82L174.48-1.82L174.48-1.82Q171.94-4.37 171.94-9.02L171.94-9.02L171.94-9.02Q171.94-16.27 175.87-20.69L175.87-20.69L175.87-20.69Q180.10-25.44 187.44-25.44L187.44-25.44L187.44-25.44Q192-25.44 194.26-23.52L194.26-23.52L194.26-23.52Q195.94-22.08 195.94-19.73L195.94-19.73L195.94-19.73Q195.94-11.28 181.34-11.28L181.34-11.28L181.34-11.28Q181.15-10.03 181.15-8.98L181.15-8.98L181.15-8.98Q181.15-6.77 182.14-5.93L182.14-5.93L182.14-5.93Q183.12-5.09 184.94-5.09L184.94-5.09L184.94-5.09Q186.77-5.09 188.71-5.93L188.71-5.93L188.71-5.93Q190.66-6.77 191.47-8.11ZM181.68-13.34L181.68-13.34L181.68-13.34Q185.09-13.34 187.06-15.46L187.06-15.46L187.06-15.46Q189.02-17.47 189.02-20.69L189.02-20.69L189.02-20.69Q189.02-21.79 188.62-22.39L188.62-22.39L188.62-22.39Q188.21-22.99 187.39-22.99L187.39-22.99L187.39-22.99Q186.58-22.99 185.88-22.68L185.88-22.68L185.88-22.68Q185.18-22.37 184.46-21.31L184.46-21.31L184.46-21.31Q182.69-18.91 181.68-13.34ZM225.36-3.60L225.36-3.60L225.36-3.60Q225.36-6.96 226.70-13.68L226.70-13.68L219.60-13.68L216.96 0L206.93 0L213.02-31.68L223.15-31.68L220.37-17.52L227.47-17.52L230.11-31.68L240.24-31.68L240.24-31.68Q239.57-28.13 238.70-24.14L238.70-24.14L237.07-16.32L237.07-16.32Q235.25-7.20 235.25-3.22L235.25-3.22L235.25-3.22Q235.25-1.58 235.78-0.67L235.78-0.67L235.78-0.67Q233.38 0.96 230.57 0.96L230.57 0.96L230.57 0.96Q227.76 0.96 226.56-0.38L226.56-0.38L226.56-0.38Q225.36-1.73 225.36-3.60ZM256.80-2.02L256.80-2.02L256.80-2.02Q254.50 0.96 248.78 0.96L248.78 0.96L248.78 0.96Q245.81 0.96 243.65-0.84L243.65-0.84L243.65-0.84Q241.49-2.64 241.49-5.23L241.49-5.23L241.49-5.23Q241.49-6.67 241.63-7.39L241.63-7.39L244.85-24.48L254.59-25.44L251.09-6.91L251.09-6.91Q250.90-5.86 250.90-5.23L250.90-5.23L250.90-5.23Q250.90-2.45 252.58-2.45L252.58-2.45L252.58-2.45Q254.45-2.45 255.79-4.99L255.79-4.99L255.79-4.99Q256.22-5.81 256.42-6.86L256.42-6.86L259.82-24.48L269.28-25.44L265.73-6.72L265.73-6.72Q265.58-6 265.58-5.23L265.58-5.23L265.58-5.23Q265.58-4.46 266.02-3.62L266.02-3.62L266.02-3.62Q266.45-2.78 267.84-2.59L267.84-2.59L267.84-2.59Q267.55-1.44 266.54-0.67L266.54-0.67L266.54-0.67Q264.43 0.96 262.15 0.96L262.15 0.96L262.15 0.96Q259.87 0.96 258.53 0.14L258.53 0.14L258.53 0.14Q257.18-0.67 256.80-2.02ZM271.25-2.30L271.25-2.30L277.20-33.60L286.94-34.56L285.46-27.22L285.46-27.22Q284.93-24.96 284.26-23.38L284.26-23.38L284.26-23.38Q285.31-24.72 287.62-25.25L287.62-25.25L287.62-25.25Q288.29-25.44 289.10-25.44L289.10-25.44L289.10-25.44Q293.57-25.44 296.02-22.73L296.02-22.73L296.02-22.73Q298.46-20.02 298.46-14.78L298.46-14.78L298.46-14.78Q298.46-7.97 294.58-3.70L294.58-3.70L294.58-3.70Q290.40 0.96 282.82 0.96L282.82 0.96L282.82 0.96Q277.58 0.96 273.65-0.77L273.65-0.77L273.65-0.77Q272.26-1.39 271.25-2.30ZM283.44-16.80L280.90-2.74L280.90-2.74Q281.90-1.87 283.15-1.87L283.15-1.87L283.15-1.87Q284.40-1.87 285.12-2.35L285.12-2.35L285.12-2.35Q285.84-2.83 286.37-3.79L286.37-3.79L286.37-3.79Q287.81-6.38 288.96-14.30L288.96-14.30L288.96-14.30Q289.30-16.56 289.30-18.82L289.30-18.82L289.30-18.82Q289.30-21.07 288.79-21.79L288.79-21.79L288.79-21.79Q288.29-22.51 287.33-22.51L287.33-22.51L287.33-22.51Q284.40-22.51 283.44-16.80L283.44-16.80Z" fill="#cec9c9"></path></g></g><style>text {
  font-size: 64px;
  font-family: Arial Black;
  dominant-baseline: central;
  text-anchor: middle;
}</style></svg>
